<?xml version="1.0" standalone="no"?>
<!DOCTYPE svg PUBLIC "-//W3C//DTD SVG 20010904//EN"
 "http://www.w3.org/TR/2001/REC-SVG-20010904/DTD/svg10.dtd">
<svg version="1.0" xmlns="http://www.w3.org/2000/svg"
 width="300.000000pt" height="300.000000pt" viewBox="0 0 300.000000 300.000000"
 preserveAspectRatio="xMidYMid meet">
<metadata>
Created by potrace 1.14, written by Peter Selinger 2001-2017
</metadata>
<g transform="translate(0.000000,300.000000) scale(0.100000,-0.100000)"
fill="#000000" stroke="none">
<path d="M1190 2584 c-36 -7 -81 -13 -101 -14 -20 0 -53 -7 -72 -15 -20 -8
-47 -15 -59 -15 -41 0 -129 -53 -181 -110 -48 -51 -137 -204 -137 -233 0 -7
-13 -39 -29 -72 l-29 -59 -127 3 c-176 4 -165 20 -165 -234 0 -211 3 -225 45
-225 41 0 45 15 45 197 l0 173 69 0 c73 0 88 -8 72 -37 -5 -10 -17 -59 -25
-109 -22 -126 -22 -629 -1 -689 8 -22 15 -47 15 -57 0 -26 77 -167 120 -217
39 -47 148 -111 189 -111 10 0 32 -7 47 -15 16 -8 39 -15 51 -15 12 0 24 -4
27 -9 3 -5 18 -12 33 -16 16 -3 45 -14 65 -23 37 -17 37 -18 38 -77 0 -43 -6
-69 -20 -93 -11 -17 -22 -49 -26 -70 -5 -30 -2 -41 18 -59 22 -21 31 -22 333
-26 314 -4 366 -9 491 -48 34 -10 77 -19 95 -19 19 0 52 -7 74 -15 52 -18 113
-19 145 0 71 40 219 105 243 105 12 0 31 6 42 14 26 17 155 36 249 36 107 0
112 7 92 143 -12 80 -16 192 -16 480 0 232 -4 378 -10 382 -5 3 -18 25 -28 48
-28 63 -42 71 -115 64 -172 -17 -328 -49 -380 -78 -25 -14 -31 -7 -68 69 -17
37 -49 84 -71 105 -43 43 -46 52 -19 67 20 10 51 63 51 86 0 7 9 28 19 46 14
24 22 62 27 139 l6 105 -53 68 c-36 45 -63 69 -81 73 -25 5 -28 10 -28 49 0
76 -37 151 -100 200 -30 24 -60 44 -67 44 -6 0 -27 9 -45 19 -77 45 -142 55
-368 57 -149 1 -235 -2 -280 -12z m533 -101 c37 -11 76 -28 86 -37 9 -9 24
-16 31 -16 21 0 79 -48 94 -78 7 -15 16 -46 20 -69 l6 -43 -55 0 c-108 0 -151
-42 -172 -167 -8 -48 -19 -92 -24 -97 -5 -6 -9 -23 -9 -38 0 -28 0 -28 -70
-28 l-70 0 0 83 c0 77 -2 87 -29 124 -50 69 -113 91 -289 99 -206 9 -234 -6
-258 -147 -8 -46 -16 -84 -17 -85 -1 -1 -27 2 -57 7 -143 21 -233 47 -226 64
3 5 23 53 44 106 92 224 176 291 407 319 39 5 90 13 115 19 25 5 126 8 225 7
151 -1 191 -5 248 -23z m335 -355 c6 -6 12 -16 12 -23 0 -8 12 -22 26 -32 26
-19 26 -19 16 -102 -6 -49 -16 -89 -26 -100 -9 -10 -16 -26 -16 -37 0 -10 -9
-30 -19 -42 -16 -22 -23 -23 -77 -19 -80 6 -133 27 -140 54 -3 12 -14 29 -25
39 -20 18 -25 54 -10 69 5 6 15 46 22 90 8 53 19 88 33 103 20 23 25 24 106
17 47 -4 91 -12 98 -17z m-663 -25 c69 -35 75 -47 75 -154 0 -113 -18 -162
-71 -193 -39 -23 -131 -31 -189 -16 -25 7 -59 14 -76 17 -18 3 -46 18 -63 33
-25 23 -31 37 -31 68 0 21 3 42 7 46 9 9 31 127 32 173 1 19 8 36 19 43 25 16
258 2 297 -17z m-683 -167 c18 -8 67 -19 108 -26 127 -19 124 -17 131 -85 7
-57 10 -62 60 -107 35 -31 65 -48 88 -51 20 -3 54 -10 76 -16 22 -6 77 -11
122 -11 73 0 88 3 144 33 65 35 94 68 114 132 3 12 22 15 83 15 66 0 82 -3 97
-20 18 -19 17 -20 -1 -20 -26 0 -44 -19 -44 -45 0 -33 20 -45 75 -45 58 0 192
-35 216 -56 8 -8 20 -14 25 -14 25 0 124 -130 124 -162 0 -6 7 -19 16 -29 15
-17 13 -20 -22 -51 -58 -51 -68 -57 -89 -53 -11 2 -49 9 -85 15 -63 11 -98 23
-190 61 -25 10 -73 23 -106 28 -34 5 -82 20 -105 33 -39 20 -58 23 -165 23
-141 0 -157 -8 -168 -78 -4 -23 -11 -59 -17 -79 -9 -35 -11 -37 -42 -31 -18 3
-49 15 -69 26 -33 18 -38 26 -38 55 0 48 -36 104 -64 100 -27 -4 -33 -40 -12
-70 19 -26 21 -119 5 -151 -6 -12 -27 -38 -46 -58 -39 -41 -41 -72 -4 -77 27
-4 107 73 117 114 5 19 11 23 23 18 9 -4 33 -9 54 -12 32 -4 37 -7 37 -31 0
-15 5 -32 12 -39 8 -8 9 -21 0 -49 -6 -21 -13 -62 -16 -90 -3 -29 -11 -68 -19
-85 -23 -53 -37 -103 -37 -129 0 -46 -11 -51 -71 -28 -29 11 -69 24 -88 29
-18 5 -38 13 -44 19 -6 6 -24 11 -40 11 -35 0 -123 45 -155 80 -12 14 -36 52
-53 85 -17 33 -34 64 -40 70 -5 5 -9 18 -9 30 0 11 -7 38 -15 60 -21 59 -21
507 1 624 27 150 47 171 126 137z m1943 -485 c-20 -17 -116 -41 -169 -41 -42
0 -72 -8 -129 -35 -41 -19 -79 -35 -85 -35 -6 0 -17 -8 -24 -18 -16 -22 -80
-62 -99 -62 -17 0 58 67 85 76 11 4 40 19 65 34 59 36 134 57 251 70 52 6 96
13 99 15 2 3 7 5 10 5 3 0 1 -4 -4 -9z m-1125 -85 l55 -26 -70 0 c-65 0 -194
16 -203 25 -3 2 -2 12 2 21 10 26 144 14 216 -20z m1194 -828 c7 -16 2 -18
-44 -18 -83 0 -233 -22 -251 -37 -8 -7 -23 -13 -32 -13 -16 0 -62 -20 -214
-91 -59 -29 -62 -29 -105 -14 -23 8 -60 15 -81 15 -21 0 -48 6 -60 14 -12 8
-56 20 -97 26 -41 6 -97 15 -125 20 -27 5 -168 9 -312 9 -145 1 -263 3 -263 5
0 2 7 17 15 32 8 16 15 54 15 84 0 119 27 291 50 325 10 14 21 61 31 130 4 33
14 86 20 118 9 42 10 64 2 76 -17 28 9 55 44 46 15 -4 93 -11 173 -15 80 -5
174 -15 210 -23 36 -8 108 -22 160 -31 52 -9 112 -22 132 -28 43 -13 182 -6
218 11 40 19 68 36 89 55 10 9 50 32 87 50 56 27 85 34 155 38 47 3 96 11 110
18 13 7 31 16 39 20 13 6 16 -43 20 -399 3 -223 10 -414 14 -423z m-1077 796
c-3 -3 -12 -4 -19 -1 -8 3 -5 6 6 6 11 1 17 -2 13 -5z"/>
<path d="M1876 2059 c-23 -18 -26 -27 -26 -83 0 -36 6 -76 15 -93 14 -28 21
-31 82 -37 65 -7 92 1 79 22 -3 6 -30 13 -59 17 -28 4 -58 12 -64 17 -17 13
-17 110 -1 126 7 7 36 12 66 12 50 0 53 -2 50 -22 -2 -14 -16 -30 -38 -40 -19
-10 -35 -24 -35 -30 0 -22 39 -20 75 4 28 19 36 31 38 62 5 55 -9 66 -88 66
-53 0 -73 -4 -94 -21z"/>
<path d="M1182 2014 c-32 -33 -33 -36 -30 -111 3 -70 5 -78 31 -97 22 -16 46
-22 105 -24 76 -4 77 -3 110 31 25 26 33 42 30 63 -4 33 -31 40 -36 9 -2 -11
-14 -31 -25 -43 -20 -21 -29 -23 -83 -20 -82 5 -94 16 -94 87 0 74 24 101 92
101 41 0 46 -3 50 -25 7 -32 -12 -47 -65 -54 -59 -8 -58 -35 1 -39 35 -3 51 2
79 24 32 24 34 29 28 63 -11 58 -29 71 -99 70 -56 0 -64 -3 -94 -35z"/>
<path d="M2097 1032 c-15 -16 -17 -46 -17 -210 0 -105 4 -193 9 -196 4 -3 11
-26 13 -51 6 -53 22 -75 53 -75 41 0 49 22 34 97 -7 38 -13 148 -14 248 -1
100 -5 186 -9 193 -11 18 -51 15 -69 -6z"/>
</g>
</svg>
